<svg width="1024" height="1024" xmlns="http://www.w3.org/2000/svg" viewBox="0 0 1024 1024">
 <g>
  <title>Layer 1</title>
  <circle stroke-width="50" stroke="white" cx="512" cy="512" r="487" fill="blue" id="svg_1"/>
  <path stroke="null" d="m517.63049,622.5481l-90.7486,-89.67621l1.07175,-1.07172c62.16602,-69.31226 106.46878,-148.98499 132.55045,-233.30261l104.68225,0l0,-71.63405l-250.09506,0l0,-71.45546l-71.45584,0l0,71.45546l-250.0938,0l0,71.09822l399.07946,0c-24.11642,68.95477 -61.80963,134.33636 -113.2576,191.5011c-33.22647,-36.9783 -60.73715,-77.17209 -82.53027,-119.68805l-71.45587,0c26.08093,58.23602 61.80875,113.25696 106.46844,162.91846l-181.67566,179.53192l50.55536,50.55511l178.63797,-178.6394l111.11337,111.11334l27.15353,-72.70612l0.00012,0zm201.14728,-181.31866l-71.45569,0l-160.77484,428.73328l71.45526,0l40.19385,-107.18304l169.70709,0l40.19385,107.18304l70.12262,0l-159.44214,-428.73328l0,0zm-93.78528,250.09485l58.05743,-154.88007l58.05743,154.88007l-116.11487,0z" fill="white" id="svg_3"/>
 </g>
</svg>
